<?xml version="1.0" encoding="UTF-8"?>
<svg version="1.1" xmlns="http://www.w3.org/2000/svg" width="466" height="536">
<path d="M0 0 C3 1 3 1 4.08740234 2.65136719 C4.58167725 3.71339355 4.58167725 3.71339355 5.0859375 4.796875 C5.4569458 5.58433105 5.8279541 6.37178711 6.21020508 7.18310547 C6.5945874 8.03018066 6.97896973 8.87725586 7.375 9.75 C7.77420654 10.61383301 8.17341309 11.47766602 8.5847168 12.36767578 C13.5890911 23.30870156 17.72942815 34.4120256 21 46 C21.2784375 46.95648438 21.556875 47.91296875 21.84375 48.8984375 C26.26859854 65.75711046 26.28720523 83.78508234 26.27439499 101.11025047 C26.27339751 104.10034443 26.28674012 107.09010878 26.30337524 110.08015442 C26.34867869 118.5640714 26.37415185 127.04794791 26.38085938 135.53198242 C26.4356855 183.43477205 30.50572296 229.42047199 45.9375 275.125 C46.35906605 276.3918133 46.78029027 277.65874039 47.20117188 278.92578125 C52.32074388 294.33951987 52.32074388 294.33951987 59.01757812 309.109375 C60.87502914 312.6839527 62.54290591 316.3518767 64.25 320 C64.79527344 321.16208984 64.79527344 321.16208984 65.3515625 322.34765625 C66.23527102 324.23135074 67.11776514 326.11561487 68 328 C67.34 328.33 66.68 328.66 66 329 C65.236875 328.38125 64.47375 327.7625 63.6875 327.125 C61.00374191 324.94402948 61.00374191 324.94402948 58 323 C58 322.34 58 321.68 58 321 C56.35 320.34 54.7 319.68 53 319 C53 318.34 53 317.68 53 317 C52.2678125 316.7525 51.535625 316.505 50.78125 316.25 C47.72015394 314.87422649 45.91611139 313.31681914 43.5 311 C39.66001894 307.43960151 35.73231365 304.15585099 31.5625 301 C25.58892043 296.47386809 19.76742219 291.78733737 14 287 C13.33484375 286.44828125 12.6696875 285.8965625 11.984375 285.328125 C10.65394977 284.22150962 9.3264634 283.11136122 8 282 C7.319375 283.2375 7.319375 283.2375 6.625 284.5 C5.820625 285.7375 5.820625 285.7375 5 287 C4.34 287 3.68 287 3 287 C2.91621094 287.52078125 2.83242188 288.0415625 2.74609375 288.578125 C1.70838815 291.94659345 -0.10064976 294.77029817 -1.9375 297.75 C-2.33573975 298.40468262 -2.73397949 299.05936523 -3.14428711 299.73388672 C-6.90812996 305.90169461 -10.74336493 312.02557084 -14.5859375 318.14453125 C-17.46047295 322.72575077 -20.28384171 327.33762681 -23.109375 331.94921875 C-25.57027664 335.92021913 -28.10269312 339.84331473 -30.65234375 343.7578125 C-32.13363362 346.03810027 -32.13363362 346.03810027 -33 349 C-38.64367189 348.34880709 -42.44453547 343.76393003 -45.875 339.625 C-49.76735508 334.93994598 -54.37923734 331.16002367 -59.06640625 327.296875 C-59.70449219 326.76578125 -60.34257812 326.2346875 -61 325.6875 C-61.5775 325.21699219 -62.155 324.74648438 -62.75 324.26171875 C-64 323 -64 323 -64 321 C-65.32 320.34 -66.64 319.68 -68 319 C-68 318.34 -68 317.68 -68 317 C-68.8353125 316.6596875 -68.8353125 316.6596875 -69.6875 316.3125 C-72.62199324 314.64697681 -74.62221176 312.37778824 -77 310 C-77.99 309.67 -78.98 309.34 -80 309 C-80.2686084 309.72058594 -80.5372168 310.44117188 -80.81396484 311.18359375 C-81.99945701 313.9987106 -83.3785515 316.46174813 -84.9765625 319.0625 C-85.56083008 320.01761475 -86.14509766 320.97272949 -86.74707031 321.95678711 C-87.36678711 322.96104736 -87.98650391 323.96530762 -88.625 325 C-89.26018555 326.03584229 -89.89537109 327.07168457 -90.54980469 328.13891602 C-92.36323332 331.09465642 -94.18134845 334.04747163 -96 337 C-96.78437544 338.27962854 -97.56832848 339.55951626 -98.3515625 340.83984375 C-101.42383648 345.85283401 -104.52764816 350.84512834 -107.65209961 355.82568359 C-108.07628174 356.50195801 -108.50046387 357.17823242 -108.9375 357.875 C-109.35845947 358.54611816 -109.77941895 359.21723633 -110.21313477 359.90869141 C-113.78956992 365.62741602 -117.26050955 371.40462679 -120.69921875 377.20703125 C-122.5088759 380.23015028 -124.40222905 383.19325888 -126.30859375 386.15625 C-128.86876814 390.15393164 -131.29232077 394.20314036 -133.6484375 398.32421875 C-134.56882813 399.89526367 -134.56882813 399.89526367 -135.5078125 401.49804688 C-136.76942627 403.65308379 -138.0059084 405.82300146 -139.21875 408.00585938 C-143.70076632 415.52120683 -143.70076632 415.52120683 -147.34521484 416.86425781 C-151.26959682 417.08080863 -153.30100329 416.59947853 -156.3046875 414.0234375 C-157.08199219 412.71246094 -157.08199219 412.71246094 -157.875 411.375 C-158.43058594 410.46492188 -158.98617187 409.55484375 -159.55859375 408.6171875 C-160.03425781 407.75351562 -160.50992188 406.88984375 -161 406 C-161.54333984 405.04480469 -161.54333984 405.04480469 -162.09765625 404.0703125 C-163.21969884 401.9723538 -164 400.40633727 -164 398 C-164.66 398 -165.32 398 -166 398 C-166.4846875 397.12859375 -166.969375 396.2571875 -167.46875 395.359375 C-171.43694398 388.28737581 -175.61672093 381.47788095 -180.171875 374.76171875 C-186.77199138 364.79103011 -186.77199138 364.79103011 -188 359 C-188.66 359 -189.32 359 -190 359 C-190.4846875 358.12859375 -190.969375 357.2571875 -191.46875 356.359375 C-195.41955512 349.3185825 -199.57981496 342.54841489 -204.12890625 335.87109375 C-206.48482526 332.25606145 -208.47033223 328.49588899 -210.484375 324.68359375 C-212.60081447 320.93618675 -215.05839182 317.47793623 -217.58203125 313.99609375 C-219 312 -219 312 -220 310 C-223.006818 311.33999498 -224.99762609 312.79845291 -227.25 315.1875 C-230.39939908 318.43827459 -233.70795188 321.40842574 -237.140625 324.35546875 C-238.80016685 325.82325682 -240.34358233 327.33851979 -241.875 328.9375 C-244 331 -244 331 -246 331 C-246.24878906 331.58652344 -246.49757813 332.17304688 -246.75390625 332.77734375 C-248.17411196 335.31056333 -249.71183746 336.70985353 -251.9375 338.5625 C-254.88306043 341.03190133 -254.88306043 341.03190133 -257.62890625 343.71484375 C-259 345 -259 345 -261 345 C-261.66 346.32 -262.32 347.64 -263 349 C-266.87065916 347.523477 -268.0633944 345.65833279 -270 342.0625 C-273.16350893 336.40363705 -276.52270313 330.90920009 -280 325.4375 C-280.52150635 324.61467529 -281.0430127 323.79185059 -281.58032227 322.9440918 C-283.76140146 319.50725016 -285.95098327 316.07623836 -288.15234375 312.65234375 C-291.21301296 307.89055862 -294.10811198 303.10177764 -296.8125 298.12890625 C-298.39918182 295.28436154 -300.11958595 292.53724931 -301.87890625 289.796875 C-302.84874013 288.24243743 -303.71615673 286.62497907 -304.5625 285 C-305.036875 284.34 -305.51125 283.68 -306 283 C-307.32 283 -308.64 283 -310 283 C-310 283.66 -310 284.32 -310 285 C-311.65848177 286.01351664 -313.32665961 287.01120795 -315 288 C-316.33886577 289.32777785 -317.67158667 290.66176476 -319 292 C-320.50287685 293.25105791 -322.0249817 294.47926898 -323.5625 295.6875 C-327.22524108 298.58224698 -330.84430846 301.51940129 -334.4375 304.5 C-339.01754748 308.26682883 -343.73821478 311.76749404 -348.58984375 315.17578125 C-350.94983181 316.96202829 -352.9234864 318.89795549 -355 321 C-356.16510139 321.88447482 -357.35167165 322.74173716 -358.5625 323.5625 C-360.96504526 325.1945185 -362.99366295 326.89609033 -365 329 C-365.66 328.67 -366.32 328.34 -367 328 C-365.28491221 323.51438578 -363.24780818 319.20866877 -361.1875 314.875 C-360.46710376 313.34781855 -359.74705135 311.82047486 -359.02734375 310.29296875 C-357.85789886 307.81391875 -356.68393158 305.33732913 -355.50390625 302.86328125 C-352.88153161 297.26724814 -350.7810182 291.63884362 -348.89453125 285.75390625 C-348.1785843 283.54979011 -347.41025077 281.40489721 -346.5625 279.25 C-337.39586757 255.06991014 -332.28432154 229.29234783 -328.8125 203.75 C-328.56197876 201.92202881 -328.56197876 201.92202881 -328.30639648 200.05712891 C-326.28196524 184.5430881 -325.84395686 169.11802371 -325.73963928 153.49533653 C-325.71824198 150.311119 -325.69126195 147.12698859 -325.66296387 143.94282532 C-325.59386453 136.04585278 -325.53384168 128.14881678 -325.47393799 120.25177002 C-325.42275773 113.5459631 -325.36788963 106.84020603 -325.30812073 100.13446999 C-325.28180914 97.0154995 -325.26084828 93.89652336 -325.2401123 90.7775116 C-325.06064621 68.18229014 -325.06064621 68.18229014 -322.984375 58.421875 C-322.7879541 57.49632812 -322.5915332 56.57078125 -322.38916016 55.6171875 C-322.1782373 54.67101562 -321.96731445 53.72484375 -321.75 52.75 C-321.52747559 51.74710938 -321.30495117 50.74421875 -321.07568359 49.7109375 C-317.95875682 36.0395124 -313.18841733 23.54599413 -307 11 C-306.48566406 9.95585937 -305.97132813 8.91171875 -305.44140625 7.8359375 C-304.30552608 5.551306 -303.16022851 3.27233694 -302 1 C-301.01 1 -300.02 1 -299 1 C-297.23983115 2.98391913 -295.68179463 4.92832992 -294.125 7.0625 C-293.67809814 7.65869141 -293.23119629 8.25488281 -292.77075195 8.86914062 C-290.52485198 11.8773426 -288.33439002 14.92027598 -286.1875 18 C-284.00518364 20.992891 -281.64765747 23.41853397 -279 26 C-278.1129341 27.03141094 -277.23800497 28.07337418 -276.375 29.125 C-274.64912868 31.21421265 -272.96092626 33.14228039 -271 35 C-272.00795561 38.94782614 -273.18467842 42.50724627 -274.9375 46.1875 C-280.20866644 57.87488028 -282.6364049 71.71352703 -278 84 C-277.74347656 84.83917969 -277.48695313 85.67835938 -277.22265625 86.54296875 C-274.27604679 95.71160333 -269.05848651 102.54652662 -262 109 C-261.34 109.33 -260.68 109.66 -260 110 C-260 110.66 -260 111.32 -260 112 C-259.113125 112.268125 -258.22625 112.53625 -257.3125 112.8125 C-254 114 -254 114 -251.67578125 115.4140625 C-240.5679861 121.9976608 -228.58186572 123.10129531 -216 124 C-213.46453155 132.50713115 -214.81848318 143.83808492 -218 152 C-221.84474634 156.70448389 -227.33694168 158.92260018 -232.86767578 161.12109375 C-235.87786114 162.3618388 -238.62987957 163.98442498 -241.4375 165.625 C-245.73480663 168 -245.73480663 168 -248 168 C-248 168.66 -248 169.32 -248 170 C-249.1446875 170.56203125 -250.289375 171.1240625 -251.46875 171.703125 C-255.89308335 173.91529168 -260.20063134 176.3057293 -264.5 178.75 C-265.22703125 179.16121094 -265.9540625 179.57242188 -266.703125 179.99609375 C-268.46974952 180.9956313 -270.23502065 181.99756027 -272 183 C-269.50136876 184.41912551 -267.00115719 185.8353384 -264.5 187.25 C-263.80390625 187.64574219 -263.1078125 188.04148437 -262.390625 188.44921875 C-257.66213439 191.1199403 -252.87486486 193.60648527 -248 196 C-248 196.66 -248 197.32 -248 198 C-247.45472656 198.14695312 -246.90945312 198.29390625 -246.34765625 198.4453125 C-240.97483972 200.04338101 -236.76877316 202.22724148 -232.19921875 205.45703125 C-230.09828558 206.93104298 -227.95490357 208.25114084 -225.75 209.5625 C-222.33795109 211.69167226 -219.72162885 214.00620827 -217 217 C-216.41734375 217.60199219 -215.8346875 218.20398438 -215.234375 218.82421875 C-201.26633523 233.69963118 -192.09969623 253.07441678 -185 272 C-184.14600288 274.1875662 -183.29184153 276.37506829 -182.4375 278.5625 C-176.76363604 293.40880856 -171.63760508 308.44795365 -167.0234375 323.65625 C-166.12011365 326.60756762 -165.18619429 329.54763787 -164.24584961 332.48730469 C-161.65946912 340.61157025 -159.38495858 348.80324938 -157.17163086 357.03637695 C-155.49598466 363.24952683 -153.71035116 369.40539256 -151.76171875 375.5390625 C-151.09854447 377.68162556 -150.51725238 379.81832163 -150 382 C-145.96377246 370.09312876 -142.42444654 358.10238911 -139.1940918 345.9543457 C-137.87257387 341.02530945 -136.43220649 336.17812748 -134.78344727 331.34912109 C-132.91864114 325.75760829 -131.29058738 320.08717605 -129.60546875 314.43945312 C-128.12444187 309.52335728 -126.57404943 304.67806571 -124.72363281 299.88842773 C-123.44719216 296.5573655 -122.29915501 293.18065647 -121.125 289.8125 C-116.7434892 277.33763081 -112.14381214 265.01031131 -106.12109375 253.22265625 C-105.27925844 251.55365175 -104.46319261 249.87160895 -103.66015625 248.18359375 C-98.43847675 237.3385671 -91.57747803 228.29608129 -84 219 C-83.35675781 218.14664063 -82.71351563 217.29328125 -82.05078125 216.4140625 C-79.98373681 213.9808559 -78.04528653 212.41559513 -75.375 210.6875 C-74.21097656 209.91986328 -74.21097656 209.91986328 -73.0234375 209.13671875 C-71 208 -71 208 -69 208 C-69 207.34 -69 206.68 -69 206 C-67.865625 205.443125 -66.73125 204.88625 -65.5625 204.3125 C-58.93112671 200.99100655 -52.52089025 197.31409454 -46.125 193.5625 C-42.06367952 191.18818956 -37.98850006 188.84538485 -33.875 186.5625 C-32.98554688 186.06878906 -32.09609375 185.57507813 -31.1796875 185.06640625 C-29 184 -29 184 -27 184 C-27 183.34 -27 182.68 -27 182 C-27.80695313 181.77441406 -28.61390625 181.54882812 -29.4453125 181.31640625 C-33.91541091 179.66099618 -37.78977042 177.37179229 -41.875 174.9375 C-43.56714223 173.94174569 -45.25986044 172.9469696 -46.953125 171.953125 C-47.79810547 171.45619141 -48.64308594 170.95925781 -49.51367188 170.44726562 C-53.18851114 168.30818008 -56.90632517 166.24906547 -60.625 164.1875 C-65.64041772 161.39623613 -70.49990005 158.49307017 -75.203125 155.19140625 C-77.00983338 153.93300953 -77.00983338 153.93300953 -79.171875 152.96484375 C-81 152 -81 152 -82 150 C-82.20996943 147.28789482 -82.37527968 144.59113137 -82.5 141.875 C-82.71258588 137.38707578 -82.97383841 132.96044668 -83.59375 128.5078125 C-83.7278125 127.35023438 -83.861875 126.19265625 -84 125 C-82.12571037 123.12571037 -79.37966521 123.6517088 -76.86523438 123.45458984 C-68.1540035 122.75642501 -60.81510951 121.33965553 -52.6875 118.0234375 C-50 117 -50 117 -47 117 C-47 116.34 -47 115.68 -47 115 C-41.25 112 -41.25 112 -39 112 C-38.67 111.01 -38.34 110.02 -38 109 C-36.328125 107.421875 -36.328125 107.421875 -34.25 105.75 C-24.7203634 97.54533961 -20.24716855 86.52711518 -19 74 C-18.80493891 60.95877297 -21.18834698 49.26694933 -28 38 C-28.15991761 34.96156543 -27.47166129 33.53302538 -25.46875 31.26953125 C-24.23547097 30.04409085 -22.98377325 28.83692362 -21.71484375 27.6484375 C-19.87158633 25.96729177 -19.87158633 25.96729177 -18.1875 23.5625 C-17.795625 23.046875 -17.40375 22.53125 -17 22 C-16.34 22 -15.68 22 -15 22 C-14.34 20.35 -13.68 18.7 -13 17 C-12.34 17 -11.68 17 -11 17 C-10.64808594 16.21882813 -10.64808594 16.21882813 -10.2890625 15.421875 C-8.56831469 12.18895487 -6.47816906 9.24044351 -4.375 6.25 C-3.74464844 5.34701172 -3.74464844 5.34701172 -3.1015625 4.42578125 C-2.07006863 2.94886957 -1.03535421 1.47420806 0 0 Z " fill="#fcfac2" transform="translate(381,120)"/>
<path d="M0 0 C0.86109375 0.3609375 1.7221875 0.721875 2.609375 1.09375 C13.08643642 5.57359695 22.5014458 11.77527339 32 18 C33.09183594 18.71414062 34.18367188 19.42828125 35.30859375 20.1640625 C37.90770706 21.93704255 39.81370149 23.74939859 42 26 C44.00156452 27.76882446 46.0237037 29.51113895 48.0546875 31.24609375 C50 33 50 33 52.5625 36 C54.87714245 38.33037324 54.87714245 38.33037324 58.125 38 C59.42549953 37.70299013 60.71636196 37.36302518 62 37 C62.95519531 36.75121094 63.91039062 36.50242188 64.89453125 36.24609375 C67.6053171 35.5257694 70.30442966 34.7750374 73 34 C73 33.34 73 32.68 73 32 C74.43359375 30.9921875 74.43359375 30.9921875 76.4375 29.875 C84.45083399 25.06415295 90.83096212 18.75355682 96 11 C96.99 11 97.98 11 99 11 C93.73981049 33.863596 76.68173659 54.32392743 61.3828125 71.43359375 C60.16648562 72.81141035 59.01492309 74.24583256 57.875 75.6875 C54.0359523 80.4223255 49.51199837 84.3273335 44.91796875 88.30078125 C43.33106583 89.70669321 41.81164131 91.18835869 40.3125 92.6875 C37.99962077 95.00037923 35.55194158 96.95844674 33 99 C32.113125 99.9075 31.22625 100.815 30.3125 101.75 C28 104 28 104 26 104 C26 104.66 26 105.32 26 106 C22.53846154 109 22.53846154 109 20 109 C20 109.66 20 110.32 20 111 C17.98046875 112.6640625 17.98046875 112.6640625 15.1875 114.625 C14.18074219 115.33785156 13.17398438 116.05070313 12.13671875 116.78515625 C11.10160156 117.51605469 10.06648437 118.24695313 9 119 C7.16528802 120.3522982 5.3319111 121.70640996 3.5 123.0625 C-1.85594472 126.9542842 -7.3751235 130.51211864 -13 134 C-14.04285156 134.66128906 -15.08570313 135.32257813 -16.16015625 136.00390625 C-35.25830171 148 -35.25830171 148 -42 148 C-44.375 146.79296875 -44.375 146.79296875 -47 145.1875 C-59.10433726 138.36065379 -70.29619333 137.68759438 -83.46948242 141.14135742 C-88.42664665 142.5850272 -92.15301851 144.70396348 -96.0703125 148.0234375 C-98 149 -98 149 -100.3203125 148.3671875 C-101.20460937 147.91601562 -102.08890625 147.46484375 -103 147 C-104.06734375 146.49984375 -105.1346875 145.9996875 -106.234375 145.484375 C-112.25820793 142.51261742 -118.09520897 139.50835372 -123.609375 135.6484375 C-126.01541983 133.98936737 -128.47500948 132.43285501 -130.95117188 130.88110352 C-137.6227976 126.68598381 -143.88541813 122.15453487 -150.0625 117.26171875 C-152.14906419 115.65517531 -154.16365958 114.23353945 -156.375 112.83203125 C-157.24125 112.22746094 -158.1075 111.62289062 -159 111 C-159 110.34 -159 109.68 -159 109 C-160.2065625 108.5978125 -160.2065625 108.5978125 -161.4375 108.1875 C-162.283125 107.795625 -163.12875 107.40375 -164 107 C-164.33 106.01 -164.66 105.02 -165 104 C-165.825 103.67 -166.65 103.34 -167.5 103 C-168.325 102.67 -169.15 102.34 -170 102 C-170.33 101.01 -170.66 100.02 -171 99 C-172.30783414 98.28460355 -173.64592439 97.62345927 -175 97 C-176.28187437 96.04119966 -177.5331293 95.04006043 -178.75 94 C-179.36359375 93.484375 -179.9771875 92.96875 -180.609375 92.4375 C-182 91 -182 91 -182 89 C-182.55300781 88.77183594 -183.10601562 88.54367188 -183.67578125 88.30859375 C-191.72809612 83.77493748 -198.35157432 74.59300231 -204.01953125 67.48046875 C-205.63482686 65.45736676 -207.28644156 63.50140312 -209 61.5625 C-221.0843485 47.50860299 -232.47808866 30.86500727 -238 13 C-237.505 11.515 -237.505 11.515 -237 10 C-234 12 -234 12 -232.8125 14.125 C-227.8794734 21.94980081 -220.22211498 27.88894251 -212 32 C-212 32.66 -212 33.32 -212 34 C-210.93072266 34.29003906 -210.93072266 34.29003906 -209.83984375 34.5859375 C-204.54986672 36.02412775 -199.26663967 37.47852632 -194 39 C-193.67 38.01 -193.34 37.02 -193 36 C-191.22265625 34.17578125 -191.22265625 34.17578125 -189.0625 32.3125 C-188.35222656 31.68988281 -187.64195312 31.06726563 -186.91015625 30.42578125 C-185 29 -185 29 -183 29 C-182.67 28.01 -182.34 27.02 -182 26 C-180.42456055 24.57714844 -180.42456055 24.57714844 -178.38671875 23.109375 C-177.63865967 22.56764648 -176.89060059 22.02591797 -176.11987305 21.46777344 C-174.91584839 20.61747559 -174.91584839 20.61747559 -173.6875 19.75 C-172.87385986 19.17024414 -172.06021973 18.59048828 -171.22192383 17.99316406 C-154.37363864 6.11200296 -154.37363864 6.11200296 -147 5 C-147 4.34 -147 3.68 -147 3 C-98.96551829 -16.61698308 -48.59970592 -21.13030692 0 0 Z " fill="#fcfac2" transform="translate(301,40)"/>
<path d="M0 0 C3.13383464 2.52069308 6.01297078 5.17188953 8.75 8.125 C9.49056641 8.91003906 9.49056641 8.91003906 10.24609375 9.7109375 C14.00566175 13.85490024 16.56339753 17.9864842 18.75 23.125 C19.100625 23.91390625 19.45125 24.7028125 19.8125 25.515625 C25.12684489 38.56703084 25.04220907 52.80683321 25.2331543 66.69580078 C25.25804932 67.72946777 25.28294434 68.76313477 25.30859375 69.828125 C25.32204834 70.75270508 25.33550293 71.67728516 25.34936523 72.62988281 C25.82170888 75.57159646 26.76212145 76.94023499 28.75 79.125 C30.49166923 80.29562684 30.49166923 80.29562684 32.4375 81.125 C33.13230469 81.44984375 33.82710938 81.7746875 34.54296875 82.109375 C35.27128906 82.44453125 35.99960937 82.7796875 36.75 83.125 C38.25254233 83.86989365 39.75266899 84.6196856 41.25 85.375 C42.405 85.9525 43.56 86.53 44.75 87.125 C44.75 87.785 44.75 88.445 44.75 89.125 C47.06 89.785 49.37 90.445 51.75 91.125 C51.609375 92.91015625 51.609375 92.91015625 50.75 95.125 C48.203125 96.87109375 48.203125 96.87109375 45 98.5625 C40.55760454 101.02290364 37.15451506 103.30781645 33.75 107.125 C32.5434375 108.0221875 32.5434375 108.0221875 31.3125 108.9375 C28.40336882 111.42090467 26.38516525 114.11710514 24.1796875 117.22265625 C22.75 119.125 22.75 119.125 21.33984375 120.46875 C18.99649446 122.90997874 17.25141906 125.72181981 15.4375 128.5625 C15.04014648 129.18431152 14.64279297 129.80612305 14.23339844 130.44677734 C8.31701539 139.8483172 3.85285745 149.82168273 -0.25 160.125 C-0.66121094 161.14207031 -1.07242188 162.15914062 -1.49609375 163.20703125 C-4.33839302 170.38804279 -6.72479644 177.64448572 -8.98046875 185.0234375 C-10.9453852 191.43137679 -13.10602867 197.77519555 -15.25 204.125 C-16.24 204.125 -17.23 204.125 -18.25 204.125 C-20.59951793 197.16080391 -22.82425068 190.16276928 -25 183.14257812 C-26.37971506 178.73395734 -27.85302685 174.38875496 -29.50439453 170.07446289 C-30.26036508 168.09789943 -30.99021614 166.11324845 -31.71484375 164.125 C-34.23033768 157.26893024 -36.71716811 150.53400358 -40.25 144.125 C-40.68957031 143.2896875 -41.12914062 142.454375 -41.58203125 141.59375 C-43.09764769 138.74647056 -44.66261772 135.93285137 -46.25 133.125 C-46.72824219 132.26003906 -47.20648438 131.39507812 -47.69921875 130.50390625 C-54.60672917 118.79419715 -65.8907374 105.3046313 -78.25 99.125 C-78.25 98.465 -78.25 97.805 -78.25 97.125 C-80.56 96.465 -82.87 95.805 -85.25 95.125 C-85.25 93.805 -85.25 92.485 -85.25 91.125 C-81.785 90.135 -81.785 90.135 -78.25 89.125 C-78.25 88.465 -78.25 87.805 -78.25 87.125 C-77.115625 86.58875 -75.98125 86.0525 -74.8125 85.5 C-69.26846448 82.73292345 -63.65166444 79.52666444 -59.25 75.125 C-58.90989977 72.18114282 -58.90989977 72.18114282 -58.90625 68.71875 C-58.87660156 67.41679687 -58.84695312 66.11484375 -58.81640625 64.7734375 C-58.79321814 63.39064225 -58.7710896 62.00782885 -58.75 60.625 C-58.61454234 51.92653409 -58.40580478 43.58757498 -56.25 35.125 C-55.97800781 33.99191406 -55.70601562 32.85882813 -55.42578125 31.69140625 C-53.18743563 23.90277374 -49.91847831 17.72526244 -45.25 11.125 C-44.59 10.135 -43.93 9.145 -43.25 8.125 C-42.59 8.125 -41.93 8.125 -41.25 8.125 C-41.02570313 7.55007812 -40.80140625 6.97515625 -40.5703125 6.3828125 C-37.33781481 0.85505018 -30.14161064 -3.71315241 -24 -5.375 C-14.80204909 -6.60139346 -7.56934336 -5.53089496 0 0 Z " fill="#fcfac2" transform="translate(248.25,209.875)"/>
<path d="M0 0 C0.55945313 0.23460937 1.11890625 0.46921875 1.6953125 0.7109375 C4.01515239 8.25041715 5.46249336 17.01456781 2.5078125 24.5859375 C-0.51190165 29.7923412 -3.2163547 33.97141384 -9.3046875 35.7109375 C-9.3046875 36.3709375 -9.3046875 37.0309375 -9.3046875 37.7109375 C-24.19342265 44.31766625 -37.08711173 44.46543861 -52.42578125 39.1953125 C-55.4382875 37.64205283 -56.2824012 36.87934801 -57.3046875 33.7109375 C-54.8296875 33.2159375 -54.8296875 33.2159375 -52.3046875 32.7109375 C-52.3046875 32.0509375 -52.3046875 31.3909375 -52.3046875 30.7109375 C-51.25410156 30.20304687 -50.20351563 29.69515625 -49.12109375 29.171875 C-39.08078839 24.27013551 -39.08078839 24.27013551 -29.6328125 18.33203125 C-26.62527747 16.23785837 -23.52586213 14.29505441 -20.4296875 12.3359375 C-14.92333115 8.85139996 -9.71909908 5.1004859 -4.609375 1.046875 C-2.3046875 -0.2890625 -2.3046875 -0.2890625 0 0 Z " fill="#fcfac2" transform="translate(332.3046875,175.2890625)"/>
<path d="M0 0 C4.17946692 0.52886049 6.28641012 1.74757487 9.4375 4.5 C21.10252508 14.14673628 34.53776499 21.28209905 47.67919922 28.68994141 C50.79318435 30.44774114 53.89711145 32.22269921 57 34 C56.90625 35.828125 56.90625 35.828125 56 38 C44.97555166 43.88383479 32.17956802 44.79933989 20.12890625 42.1484375 C11.01923644 39.26550647 3.5955365 34.64752349 -1.5625 26.4375 C-4.38294896 19.91682901 -4.14864394 11.24013705 -2.31640625 4.4765625 C-1.5 2.5625 -1.5 2.5625 0 0 Z " fill="#FDFDFD" transform="translate(130,175)"/>
</svg>
